<svg width="24" height="26" viewBox="0 0 24 26" fill="none" xmlns="http://www.w3.org/2000/svg">
<g clip-path="url(#clip0)">
<path d="M22.3159 21.0552C22.1351 22.4091 21.23 23.5798 19.9633 24.1002C19.3426 24.3598 18.67 24.4387 17.9975 24.3598C17.3515 24.2822 16.7043 24.0735 16.033 23.6841C15.1025 23.1625 14.1709 22.3569 13.0849 21.1596C14.7916 19.0511 15.8257 17.1259 16.2137 15.4081C16.3945 14.6013 16.421 13.8722 16.3427 13.1953C16.2391 12.5451 16.0064 11.9458 15.6449 11.4253C14.8434 10.2547 13.4983 9.57773 11.999 9.57773C10.4997 9.57773 9.15464 10.2801 8.35315 11.4253C7.99158 11.9458 7.75897 12.5451 7.65532 13.1953C7.55167 13.8722 7.57818 14.6268 7.78428 15.4081C8.17237 17.1259 9.23177 19.0778 10.9131 21.1851C9.85247 22.3824 8.89672 23.1892 7.96506 23.7096C7.29254 24.1002 6.64653 24.3089 6.00052 24.3865C5.33402 24.4617 4.66029 24.372 4.03597 24.1269C2.76926 23.6065 1.86413 22.4346 1.68334 21.0819C1.6062 20.4317 1.65803 19.7814 1.91595 19.0524C1.99309 18.7915 2.12325 18.5319 2.25221 18.2201C2.433 17.804 2.6403 17.3612 2.8464 16.9184L2.87291 16.8663C4.65667 12.9879 6.5706 9.03182 8.56166 5.1801L8.63879 5.02361C8.8461 4.63419 9.05219 4.21687 9.25949 3.82624C9.4668 3.41013 9.69941 3.0195 9.98385 2.68104C10.5274 2.05627 11.2506 1.71781 12.052 1.71781C12.8535 1.71781 13.5779 2.05627 14.1202 2.68104C14.4047 3.0195 14.6373 3.41013 14.8446 3.82624C15.0519 4.21687 15.258 4.63298 15.4653 5.0224L15.5436 5.17889C17.5082 9.05608 19.4221 13.0121 21.2059 16.8905V16.916C21.4132 17.3321 21.5939 17.8016 21.8 18.2177C21.929 18.5307 22.0592 18.7903 22.1363 19.0499C22.3424 19.7281 22.4195 20.3783 22.3159 21.0552ZM11.999 19.8312C10.6033 18.0612 9.6982 16.3956 9.38725 14.9908C9.25829 14.3915 9.23177 13.871 9.31011 13.4028C9.36194 12.9867 9.51742 12.6215 9.72351 12.3097C10.2153 11.6073 11.042 11.1645 11.999 11.1645C12.956 11.1645 13.8093 11.5818 14.2745 12.3097C14.4818 12.6227 14.6361 12.9867 14.6879 13.4028C14.765 13.871 14.7397 14.4182 14.6108 14.9908C14.301 16.3701 13.3959 18.0357 11.999 19.8312ZM23.6609 18.4785C23.532 18.1668 23.4018 17.8283 23.2729 17.542C23.0655 17.0737 22.8595 16.6309 22.6775 16.2148L22.6522 16.1893C20.8684 12.2855 18.9545 8.32941 16.9381 4.42553L16.861 4.26904C16.6537 3.87841 16.4476 3.4623 16.2403 3.04619C15.9811 2.57792 15.7232 2.08296 15.3098 1.61469C14.4818 0.572602 13.2922 0 12.0255 0C10.7323 0 9.56924 0.572602 8.71472 1.56131C8.32664 2.02958 8.0422 2.52454 7.78428 2.99281C7.57698 3.40892 7.37088 3.82503 7.16358 4.21566L7.08644 4.37094C5.09538 8.27482 3.15615 12.2309 1.37239 16.1348L1.34708 16.1869C1.16629 16.603 0.958988 17.0458 0.751687 17.5141C0.613084 17.8222 0.484123 18.1352 0.363598 18.4506C0.0273357 19.4139 -0.0763152 20.3249 0.0526458 21.2615C0.337083 23.2134 1.63031 24.8536 3.41407 25.5815C4.08659 25.8678 4.78443 25.9976 5.50878 25.9976C5.71608 25.9976 5.974 25.9721 6.1813 25.9454C7.03462 25.8411 7.91324 25.556 8.76655 25.061C9.82716 24.463 10.8347 23.604 11.9725 22.3545C13.1102 23.604 14.1443 24.463 15.1784 25.061C16.0318 25.556 16.9104 25.8411 17.7637 25.9454C17.971 25.9721 18.2289 25.9976 18.4362 25.9976C19.1606 25.9976 19.8837 25.8678 20.5309 25.5815C22.3412 24.8524 23.6079 23.1867 23.8923 21.2615C24.0996 20.3516 23.996 19.4418 23.6609 18.4785Z" fill="#E0565B"/>
</g>
<defs>
<clipPath id="clip0">
<rect width="24" height="26" fill="white"/>
</clipPath>
</defs>
</svg>
