<svg width="28" height="28" viewBox="0 0 28 28" fill="none" xmlns="http://www.w3.org/2000/svg">
<path d="M18.1525 1.73226C17.727 0.422494 16.3203 -0.294241 15.0107 0.131447C13.7009 0.556916 12.9842 1.9637 13.4099 3.27325L19.8572 23.1101C20.3 24.3336 21.6217 25.0212 22.8904 24.6561C24.2139 24.2751 25.0205 22.8695 24.5982 21.5698L18.1525 1.73226Z" fill="#DFA22F"/>
<path d="M8.16203 4.97824C7.73635 3.66858 6.32967 2.95185 5.02013 3.37731C3.71025 3.80289 2.99341 5.20956 3.41921 6.51933L9.86664 26.3562C10.3093 27.5797 11.6311 28.2673 12.8998 27.9019C14.2232 27.5212 15.0298 26.1156 14.6075 24.8157L8.16203 4.97824Z" fill="#3CB187"/>
<path d="M26.2682 18.1612C27.578 17.7357 28.2945 16.3292 27.869 15.0193C27.4436 13.7098 26.0368 12.9929 24.7272 13.4185L4.89045 19.866C3.66687 20.3086 2.97934 21.6302 3.34444 22.899C3.72539 24.2223 5.13097 25.0291 6.43067 24.6068L26.2682 18.1613" fill="#CE1E5B"/>
<path d="M9.0239 23.7639L13.765 22.2234L12.2243 17.4818L7.48291 19.0229L9.0239 23.764" fill="#392538"/>
<path d="M19.0147 20.5178C20.8072 19.9356 22.4732 19.3942 23.7559 18.9774L22.215 14.2349L17.4736 15.776L19.0147 20.5178Z" fill="#BB242A"/>
<path d="M23.0217 8.17093C24.3313 7.74546 25.0481 6.33879 24.6226 5.02891C24.1971 3.71936 22.7904 3.00263 21.4806 3.4281L1.64368 9.87576C0.420213 10.3181 -0.267428 11.6399 0.0979941 12.9086C0.478728 14.2318 1.88431 15.0386 3.18423 14.6163L23.0217 8.17082" fill="#72C5CD"/>
<path d="M5.77742 13.7739C7.0686 13.3543 8.73329 12.8133 10.5193 12.2332C9.93707 10.4405 9.39567 8.77455 8.97884 7.49158L4.23633 9.03289L5.77742 13.7739Z" fill="#248C73"/>
<path d="M15.7672 10.528L20.5092 8.98714C19.9956 7.40628 19.482 5.82544 18.9682 4.24463L14.2261 5.78594L15.7672 10.528Z" fill="#62803A"/>
</svg>
