<svg width="30" height="30" viewBox="0 0 30 30" fill="none" xmlns="http://www.w3.org/2000/svg">
<path d="M15 0C6.71546 0 0 6.71546 0 15C0 23.2845 6.71546 30 15 30C23.2845 30 30 23.2845 30 15C30 6.71648 23.2845 0.00102354 15 0ZM21.8792 21.6336C21.61 22.0757 21.0338 22.2139 20.5937 21.9447C17.0716 19.7922 12.6377 19.306 7.41658 20.4985C6.913 20.6141 6.41146 20.2989 6.29683 19.7953C6.18117 19.2917 6.49539 18.7902 7 18.6755C12.7134 17.3705 17.6151 17.9324 21.5691 20.348C22.0092 20.6192 22.1494 21.1935 21.8792 21.6336V21.6336ZM23.7144 17.5507C23.3756 18.1013 22.6551 18.2733 22.1054 17.9355C18.0747 15.4575 11.9273 14.74 7.15865 16.1873C6.54043 16.3746 5.88741 16.0256 5.69908 15.4084C5.51279 14.7902 5.86182 14.1382 6.47902 13.9498C11.9263 12.2968 18.6991 13.0972 23.3286 15.9427C23.8792 16.2815 24.0532 17.001 23.7144 17.5507ZM23.8721 13.2968C19.0368 10.4258 11.0614 10.1617 6.44524 11.5619C5.7042 11.7871 4.92016 11.3685 4.69601 10.6274C4.47185 9.88639 4.88946 9.10235 5.63153 8.87718C10.9304 7.26919 19.738 7.57933 25.304 10.8833C25.9703 11.2794 26.1894 12.1402 25.7943 12.8055C25.4002 13.4729 24.5374 13.6929 23.8721 13.2968Z" fill="#2EBD59"/>
</svg>
